<svg id="Lager_1" data-name="Lager 1" xmlns="http://www.w3.org/2000/svg" viewBox="0 0 347.556 69.58"><defs><style>.cls-1{fill:#fff;}</style></defs><title>Rityta 1</title><path class="cls-1" d="M311.994,25.279c.251-7.273,5.291-12.23,11.573-12.23a10.719,10.719,0,0,1,8.43,3.8Zm20.58,8.267a9.979,9.979,0,0,1-9.007,4.957,11.083,11.083,0,0,1-9.091-4.543l30.081-12.648C342.492,9.906,333.9,3.461,323.646,3.461c-12.066,0-21.817,10.082-21.817,22.4a21.994,21.994,0,0,0,21.817,22.231c10.579,0,18.1-5.868,20.581-14.545ZM298.431,3.708C284.3,1.974,275.953,10.4,275.953,22.47V47.1h10.909V22.47c0-6.031,4.627-9.751,11.569-8.514ZM255.787,25.943c0,6.608-4.877,11.983-10.909,11.983S233.97,32.718,233.97,25.943c0-7.026,4.873-12.233,10.908-12.233s10.909,5.454,10.909,12.233M266.7,25.86c0-12.317-9.007-22.4-21.818-22.4-12.893,0-21.9,10.082-21.9,22.4,0,12.229,9.174,22.147,20.413,22.147a17.148,17.148,0,0,0,12.977-5.371V47.1H266.7Zm-59.584-.167c0,6.942-4.878,12.233-10.913,12.233s-10.908-5.454-10.908-12.233c0-6.613,4.877-11.983,10.908-11.983s10.913,5.124,10.913,11.983m10.909,0c0-12.23-9.011-22.232-21.822-22.232-12.89,0-21.9,10-21.9,22.232V66.025h10.993V43.05a16.693,16.693,0,0,0,12.4,4.957c11.243,0,20.334-10,20.334-22.314M165.789,22.47c0-11.155-7.026-19.009-18.925-19.009A17.71,17.71,0,0,0,133.309,9.5a17.09,17.09,0,0,0-13.554-6.036c-11.653,0-19.176,8.184-19.176,19.009V47.1h10.913V22.223c0-4.793,3.386-8.1,8.263-8.1,7.189,0,7.933,5.7,7.933,8.1V47.1H138.6V22.223c0-4.793,3.473-8.1,8.267-8.1,7.189,0,8.016,5.7,8.016,8.1V47.1h10.909Z"/><path class="cls-1" d="M45.953,32.718H34.3a10.023,10.023,0,0,1-8.927,5.455c-6.031,0-10.909-5.538-10.909-12.23,0-6.863,4.878-12.48,10.909-12.48a10.184,10.184,0,0,1,8.844,5.371H45.869C43.391,9.246,35.621,3.461,25.373,3.461c-12.811,0-21.985,10.082-21.985,22.4s9.174,22.231,21.985,22.231c10.332,0,18.1-5.7,20.58-15.373"/><path class="cls-1" d="M51.915,19.291H63.568A10.023,10.023,0,0,1,72.5,13.837c6.031,0,10.909,5.538,10.909,12.229,0,6.863-4.878,12.48-10.909,12.48a10.184,10.184,0,0,1-8.844-5.37H52c2.478,9.587,10.248,15.372,20.5,15.372,12.811,0,21.985-10.081,21.985-22.4S85.306,3.919,72.5,3.919c-10.332,0-18.1,5.7-20.58,15.372"/></svg>