<svg width="273" height="79" viewBox="0 0 273 79" fill="none" xmlns="http://www.w3.org/2000/svg">
<rect width="273" height="79" fill="none"/>
<path d="M227.876 37.2125C228.042 32.4042 231.374 29.1271 235.527 29.1271C236.584 29.1033 237.634 29.3166 238.598 29.7514C239.563 30.1861 240.417 30.8312 241.1 31.6393L227.876 37.2125ZM241.482 42.6779C240.88 43.7131 240.008 44.565 238.959 45.1423C237.91 45.7196 236.723 46.0005 235.527 45.955C234.358 45.97 233.203 45.7053 232.157 45.1828C231.112 44.6603 230.206 43.8953 229.517 42.9516L249.404 34.5899C248.038 27.0493 242.358 22.7884 235.579 22.7884C227.602 22.7884 221.156 29.4537 221.156 37.5973C221.135 39.5101 221.492 41.4082 222.206 43.1828C222.92 44.9574 223.978 46.5737 225.317 47.939C226.657 49.3043 228.253 50.3917 230.014 51.1391C231.775 51.8865 233.666 52.2791 235.579 52.2944C242.573 52.2944 247.545 48.415 249.185 42.6785L241.482 42.6779ZM218.909 22.9517C209.567 21.8053 204.049 27.3758 204.049 35.3554V51.6386H211.261V35.3554C211.261 31.3683 214.32 28.909 218.909 29.7267V22.9517ZM190.717 37.6515C190.717 42.0201 187.493 45.5735 183.505 45.5735C179.517 45.5735 176.293 42.1305 176.293 37.6515C176.293 33.0065 179.515 29.5641 183.505 29.5641C187.495 29.5641 190.717 33.1698 190.717 37.6515ZM197.932 37.5966C197.932 29.4537 191.977 22.7877 183.508 22.7877C174.984 22.7877 169.029 29.453 169.029 37.5966C169.029 45.6813 175.094 52.2382 182.524 52.2382C184.124 52.2854 185.716 51.9934 187.194 51.3814C188.673 50.7694 190.005 49.8512 191.104 48.6874V51.6386H197.932V37.5966ZM158.54 37.4862C158.54 42.0756 155.315 45.5735 151.325 45.5735C147.336 45.5735 144.114 41.9678 144.114 37.4862C144.114 33.1143 147.338 29.5641 151.325 29.5641C155.312 29.5641 158.54 32.9516 158.54 37.4862ZM165.752 37.4862C165.752 29.4008 159.795 22.7884 151.325 22.7884C142.804 22.7884 136.847 29.3995 136.847 37.4862V64.1501H144.115V48.9611C145.182 50.0421 146.461 50.8912 147.872 51.4551C149.282 52.019 150.794 52.2856 152.312 52.2382C159.745 52.2382 165.755 45.6271 165.755 37.4862H165.752ZM131.218 35.3554C131.218 27.9808 126.573 22.7884 118.707 22.7884C117.013 22.7661 115.335 23.1115 113.788 23.8008C112.241 24.49 110.862 25.5068 109.746 26.7808C108.648 25.485 107.272 24.4533 105.721 23.7625C104.169 23.0716 102.482 22.7393 100.785 22.7904C93.0809 22.7904 88.1074 28.2009 88.1074 35.3574V51.6386H95.3221V35.1921C95.3221 32.0234 97.5606 29.8372 100.785 29.8372C105.538 29.8372 106.029 33.6055 106.029 35.1921V51.6386H113.243V35.1921C113.243 32.0234 115.539 29.8372 118.709 29.8372C123.462 29.8372 124.008 33.6055 124.008 35.1921V51.6386H131.22L131.218 35.3554Z" fill="#242629"/>
<path d="M51.9932 42.13H44.2892C43.733 43.2164 42.8876 44.128 41.8462 44.7643C40.8048 45.4007 39.6079 45.7371 38.3875 45.7364C34.4004 45.7364 31.1755 42.0752 31.1755 37.651C31.1755 33.1138 34.4004 29.4004 38.3875 29.4004C39.5904 29.4159 40.7672 29.7534 41.7955 30.3779C42.8238 31.0024 43.6659 31.8909 44.2344 32.9512H51.9376C50.2994 26.6125 45.1626 22.788 38.3875 22.788C29.918 22.788 23.853 29.4533 23.853 37.5968C23.853 45.7404 29.918 52.2939 38.3875 52.2939C45.2181 52.2939 50.3536 48.5256 51.9932 42.1307" fill="#242629"/>
<path d="M55.9351 33.2533H63.639C64.1955 32.1666 65.0415 31.2548 66.0835 30.6185C67.1255 29.9823 68.3231 29.6462 69.544 29.6476C73.5311 29.6476 76.756 33.3088 76.756 37.7323C76.756 42.2695 73.5311 45.9829 69.544 45.9829C68.3411 45.9675 67.1644 45.63 66.1361 45.0057C65.1079 44.3813 64.2657 43.4929 63.6971 42.4328H55.9913C57.6295 48.7708 62.7663 52.5954 69.544 52.5954C78.0135 52.5954 84.0785 45.9307 84.0785 37.7865C84.0785 29.6423 78.0102 23.0907 69.544 23.0907C62.7134 23.0907 57.5779 26.859 55.9384 33.2533" fill="#242629"/>
</svg>
